<svg xmlns="http://www.w3.org/2000/svg" viewBox="0 0 320 210" preserveAspectRatio="xMidYMid slice"><rect width="320" height="210" fill="#17181b"/><path class="park" d="M196.4 70.2L197.7 70.1L197 67.5L203.6 56.4L197.6 51.5L196 47.4L190.9 42.8L187.1 43.5L188.5 43.7L189.7 45.7L191.5 45.3L193.7 50.7L189.2 51.7L192.5 57.7L189.7 63.4L196.4 70.2ZM261 102.5L258.1 100.1L253.6 99.9L245.3 93.2L232 99.3L248.5 109.1L252 108.1L261 102.5ZM310.2 120.7L310.9 120.5L282 110.2L281.2 110.8L310.2 120.7ZM70.3 60L73.6 58L62 50.3L60 51.6L60.2 53.8L58.7 55L55.2 53.7L53.2 54.9L50.2 54.6L47.4 57.2L52.5 60.8L63.8 63.6L70.3 60ZM281.7 99.3L285.1 95.1L282 93.7L281.4 92.5L283.2 90.7L282.6 89L279.3 86.7L281.1 84.6L282.9 78.6L276.9 82.2L276.8 85.3L278.6 86.1L276.4 87L275.5 88.8L280.4 95.8L282.3 96.4L281.7 99.3ZM65.4 68.9L67.2 68.8L67.1 70L78.4 71.4L79.8 69.2L81.4 69.6L80.1 71.6L81.7 72L82.9 70L84.3 70.3L83.4 72.8L85.1 70.1L66.2 65.6L65.4 68.9ZM308.6 111.1L311.8 108.9L313.1 109.7L307.2 113.8L303 113.2L300.5 116.6L296.8 115.7L298.1 113.8L298.2 116L300.3 116L299.5 114.1L304.7 109.7L307.8 109L308.5 110.4L304.7 110.6L306.3 112.4L308.6 111.1ZM127.5 31L137.8 25.2L140.5 27.8L145.9 29.6L147.2 31.9L145.6 37.1L143.4 39L131.3 30.3L127.5 31ZM217.7 144.8L211.1 141.8L212.2 140.7L209.5 139.3L216.3 134.5L224.4 138L224.9 142.1L227.4 143.7L225.1 145.6L224.4 147.9L217.7 144.8ZM124.3 60.3L128.7 62L130.7 63.9L128.9 65.1L131.5 66.9L133.5 65.6L135.5 66.9L129.9 71.5L116.7 66.3L124.3 60.3ZM156.9 22.6L158.1 21.2L158.3 18.6L170.6 18.7L173.4 20.3L176.1 24.4L171.2 27.9L168.3 24.4L161.6 24L156.9 22.6ZM96.7 22.2L98.9 23.4L90.2 26.5L79.6 19.1L84.7 16.2L91.6 21L90.8 22.3L92.1 23.1L96.7 22.2ZM324 77L333.2 85.3L332.9 87.5L329.6 89.5L316.6 79.2L318.9 78.7L318.2 79.1L319.4 79.9L321.3 77.8L324 77ZM87.5 81.8L93.3 82.4L94.5 83.2L93.5 83.8L96.4 84.3L96.5 85.6L93.7 85.2L92.5 88.1L90.1 87.6L90.7 86.5L89.4 86.2L87.3 89.1L82.8 87.3L81.1 87.7L82.9 87.2L85.7 83.1L87.3 84L87.5 81.8ZM75.7 83.4L75 84.1L77.6 84.8L81.3 80.2L78.2 78.8L75.2 80L73.9 82.6L77.5 79.5L77.8 80.6L75.4 82.9L77.3 82.5L79 79.9L80.5 80.7L77.6 82.7L78.5 83L77.2 84.4L75.2 83.9L75.7 83.4ZM144.6 74.3L146 73.5L144 72L147.3 72.1L158.6 74.2L158.7 76.6L157.3 80.1L154.6 79.5L153.7 80.6L149.3 78.1L150.1 77.1L144.6 74.3ZM157.6 67.5L154.6 68.3L154.1 69.8L152.7 69.6L153.4 67.4L151.9 68.6L149.5 67.5L153.8 63.9L156 64.9L156.6 62.2L159.2 60.4L161.2 60.7L161.6 62.6L162.7 62.4L162.9 63.4L161.1 63.5L161.6 66.3L157.6 67.5ZM281 109.8L280 110.4L270.9 108.1L261.7 109L270.4 107.4L281 109.8ZM308.3 166.4L310.9 159.6L307.4 157.6L310 160.3L309 162.9L304.4 162.1L302.9 165.7L299.4 165.5L308.3 166.4ZM252.3 98.8L262.1 93.2L254.4 89.3L245.3 93.2L252.3 98.8ZM82.1 164.9L71.6 168.9L85.4 173.8L85.3 170.4L87.1 167.4L82.1 164.9ZM111.8 36.7L114.5 38L112.4 36.6L114.2 34.5L119.1 33.4L111.7 30.4L112.8 30.7L110.4 34L111.8 35.2L107.6 34.2L111.8 36.7ZM43.5 153.2L44 152L40.9 152.8L33.4 158.8L35.4 158.5L42 153.4L43.5 156.2L41.9 158.1L45.4 155.8L43.5 153.2ZM126 52.1L122.4 50.3L122.4 49.4L125.7 47.6L125.1 46.6L127 45.5L125.1 43.8L129.8 42.3L132.3 44.2L130.8 45.1L132.4 46.2L130.5 47.3L131.9 49.4L126 52.1ZM322.7 40.9L328.7 44L325.5 43.3L322.4 45.7L323.9 47.4L327.2 45.5L324.2 47.8L318 44.5L322.7 40.9ZM182.3 120.6L183.9 123L178.9 126.9L170.3 121.4L170.5 118.7L173.5 116.7L182.3 120.6ZM19 111.6L15 109.6L11.4 111.9L8.2 109.7L5.5 113L9 113.6L8.5 116.2L11.2 116.6L19 111.6ZM295.1 103.2L287.8 101.2L288.9 97.9L288.6 94.6L300.7 101.6L297.5 103.5L295.1 103.2ZM108.5 26.8L109.3 30.6L103.2 26.2L95.5 25L100 23.4L103.5 25.9L108.5 26.8ZM201.9 109.4L207.4 107.3L192.1 104.9L194.5 107.7L201.9 109.4ZM106.6 52.8L104.9 52.9L107.2 55.2L104.9 55.9L102.5 58.3L101.3 58L106.9 60.2L112.7 54.5L106.6 52.8ZM-2.2 208.9L-0.7 210.5L5.5 208L9.8 210.4L2.1 204.3L3.6 206.5L-2.2 208.9ZM240.9 140L241.3 136L242.4 136.4L243.6 135.1L249.9 136.8L248 138.3L244 137L241.2 139.7L244.7 140.9L243.8 141.6L240.9 140ZM183.6 184.8L181.8 184.3L183 183.3L181.9 182.5L183 181.3L178.1 179.6L178.6 178.7L181.9 180.3L183.7 179.4L183.5 180.4L187.2 182.1L185.4 183L186 182L185.2 181.6L182.8 184L183.6 184.8ZM214.6 123.1L221.8 125.5L222.5 124.3L225.7 125.2L226.6 123.7L221.8 122.4L221.8 119.3L217.3 120.5L214.6 123.1Z"/><path class="secondary" d="M258 196.7L285.9 190.3M248.6 120.1L264.9 120.5M290.4 123.4L274.2 121.6M300.9 178.9L310 178.5L314.5 175M254.8 197.6L252.8 196.3L241.3 193.8M121 123.5L117.4 134L115.7 135.8M109.8 157.5L104.5 159.4L103.4 161.9L104.2 164.6L102.6 166.4M15.2 177.8L26.7 173.1M135.1 151.1L124 156.5M26.3 172.8L15.4 177.3M45.2 164.3L34.5 168.5M309.7 80.1L320.9 77.7M279.5 122.6L290.3 123.7M241.1 194.2L251.4 196.2M269.5 120.8L259.4 119.6M295.5 207.9L296.7 203.8L294 198.6M6 181.4L15.2 177.8M125.1 156.4L133.7 152.2M262.1 102.3L271.1 99.4M117 135.2L120.3 126.5M314.5 175L317.7 169.8L320.3 168M186.7 155.1L188.7 146.3M202 120.4L194.5 125.4M88.3 7.6L95.1 2M205 189.4L213.7 190M200.4 174.2L200.2 182.8M303.5 137L296.7 142.1M133.6 176.4L140.8 172.1M157.4 91.7L149.7 88.6M-3.3 184.4L4.4 182"/><path class="major" d="M10 75.1L-26.9 85.9L-36.1 89.8L-44.5 97.3L-46.5 101.8L-46.8 106.2M-38.7 92.6L-29.2 87.6L7.1 76.7M-22.1 168.5L-18.3 179.4L-13.9 187.2L-7.6 194.3L3.5 203.5M304.6 37.8L300.9 41L276.6 71.7M3.8 203.3L-10.2 189.6L-21.4 168.2M76.1 19.8L59.6 31.8L42.7 39.6M17.3 73.5L28.3 67.9L34.3 59.2M15.9 51.9L-5.1 46.6M276.8 71.8L288.5 56.8M119.1 5.9L123.2 12.3L130.3 19.7M240.9 94.4L257 87.6M152.2 184.8L159.8 185L168.8 181.3M50.6 61.4L67.2 65.4M124.8 189.3L123.8 172.3M310.7 33.1L322.7 21.2M66.4 79.1L64.5 83.5L60.9 86.9L62.5 93.9M43 40L58.2 33M35.1 56.2L30.9 64.4L26 69.2M72.4 66.6L87.3 70.4M322.7 21.2L319.1 23.6L311.6 31.6M190.4 25.2L189 10M73.1 22.9L84.2 14.1M9.7 208.9L20.6 217.9M121.2 210.5L125.2 197.1M124.8 197.1L120.8 210.4M123.4 172.3L124.2 185.7M121.7 137.1L121.6 150.4M289 56.1L297.4 45.8M20.3 217L10.3 208.6M3.6 49.4L16.2 52.4M-9 46.1L3.6 49.4M58.2 33L69.1 26.1M110.3 -7L100.2 0.7M277.3 140L289.9 141.3M67.8 120.8L65.4 108.5M190 23.5L188.2 35.9M213.6 164.8L213.8 168.8L219.1 170.7L218.3 173.5M65.1 64.2L53.1 61.2M93.8 6.2L103.6 -1.4M65.1 108.7L67.4 120.9M96.5 72.3L108.3 74.4M108.5 74.1L96.7 72M87.3 70L76.1 67.2M188.6 9.7L189.8 20.8M121.9 76.9L111.2 74.5M70.9 131.5L71 141.5M83.8 13.9L76.1 19.8M297.6 45.5L304.1 38.4M80.1 15.2L72.4 20.1M137.2 190.9L144.7 186.3M37.4 47.7L35.1 56.2M228.2 149.9L221.9 156M189.5 3.9L194.1 -3.5M38 48.5L42 40.9M300.9 148L309.1 149.5M122.1 147.8L122.1 139.4M42.7 39.6L37.9 46.4M69.6 128.9L67.8 120.8M84.2 14.1L90.4 9M71.2 142.3L71.7 134.3M74.7 59.2L67.8 63.2M67.4 120.9L69.1 128.6M119.1 5.9L115.3 -0.8M83.8 160.2L90.1 164.4M49.2 35L42.5 38.4M310 33.3L304.6 37.8M99.9 177.5L102 184.1M145.8 29.4L139.8 25.9M67.8 63.2L65.3 66L64.9 69.2M174.8 178L168.8 181.3M69.6 26.7L74.7 22.2M51.8 60.9L45.2 59.4M65.2 69.2L65.6 66.1L68 63.4M265.7 138.8L272.3 139.9M192.7 -2.1L189.4 3.5M257 87.6L263 85.1M121.9 154.3L122.1 147.8M188.1 36.7L185.5 42.6M96.1 167L90.3 164.3M145.4 185.6L139.8 188.6M59.4 33.3L64.7 30.1M121.6 150.4L121.6 156.6M123.8 184.7L123.9 190.8M232.9 146.1L228.2 149.9M116.5 75.8L122.4 77.4M87.8 162.9L83 159.3M21.6 53.2L15.9 51.9M11.7 75.3L17.3 73.5M188.5 35.9L189.9 30.2M189.8 104.2L185.6 100.1M125.5 190.7L125 185M62.7 95.8L63.8 101.4M111 74.9L116.5 75.8M275.8 73L272.5 77.4M228.5 150.1L232.8 146.6M237 95.7L231.6 97.1M224.4 153.8L228.5 150.1M91 164.8L95.9 167.1M197.5 171.8L192.1 171.8M66.2 77.4L64.8 82.5M24.2 54.6L29.4 55.8M112.4 204.3L108.7 200.5M66.5 76.6L65.3 71.3M77.6 155.2L81.8 158.5M67.2 65.4L72.4 66.6M169.1 50.6L163.9 51.5M80.8 17.9L84.9 14.7M16.2 52.4L21.2 53.8M223.8 100.2L228.5 98.1M72.7 151L76.5 154.4M64.5 103.4L63.5 98.3M124.4 173.4L124 168.3M29.5 55.3L24.5 54M64.2 27.9L59.9 30.6M40.2 77.9L36 75.2M38.7 58.1L43.5 59.4M64.8 83.4L66.7 78.8M189.9 30.2L190.4 25.2M93.9 5.6L90.1 8.7M125.1 194.3L124.8 189.3M90.1 8.7L86.2 11.9M74.7 22.2L78.7 19.3M174 49.9L169.1 50.6M210.8 106.1L215.2 104M120.6 208.9L115.8 208M49.1 38.1L53.5 36M89.3 8.3L85.5 11.3M17.9 72.7L13.2 74.1M316.6 149.1L321.4 148.8M115.8 208.3L120.5 209.4M247.4 132.2L251.9 133.7M231.6 97.1L236.2 96.2M129.5 195.2L133.5 192.8M188.8 8.5L189.5 3.9M123.3 176.7L123.6 181.4M121.6 156.6L122.4 161.1M220.8 157.6L224 154.3M122.8 161.1L122 156.6M124.4 189.2L124.7 193.8M147.1 33.2L147.4 30.9L145.8 29.4M200.9 109.5L196.5 108.7M304.1 38.4L307.7 35.8M70.6 144.6L71.4 149M103.9 190.3L102.6 186.1M64.7 30.1L68.3 27.6M139.8 64.1L136.2 66.7M122.9 170.1L123.1 174.4M141.8 27.9L145.8 29.4M195 69.1L192 66.2M106.2 197.9L109 201M106.6 198.1L105.2 194.2M76 59.4L78.9 62.3M105.2 194.2L103.9 190.3M7 205.9L3.8 203.3M132.3 21.3L135.5 23.8M3.5 203.5L6.6 206.1"/><path class="water" d="M257.3 182.8L260.8 180.2L260.7 175.7L260.1 172L255.6 164.2L249.2 158.2L244.4 156.2L237.6 155.6L233.1 157.4L231.7 161L231.9 165.2L223.9 176L222 183.8L216.6 186.6L209.3 185.5L206 183.4L203.1 177.1L206.3 166.4L204.1 161.8L198.2 160L175.9 159.6L168.9 158.1L166.5 156.2L158.8 141.6L155.9 138.4L136.8 129.6L120.2 120.2L109.6 117.7L93.4 117.3M167.8 277.3L172.6 272.9L181.6 273.2L186.8 269.3L185.8 267.1L188.6 263.1L187.8 261.1L188.8 259.7L188 259.4L190 258.3L188.9 257.8L189.7 256.6L187.7 256.9L186.6 255.8L187.4 254.5L185.6 253.4L183.3 248.4L185.4 246.6L184.4 245.3L188.2 243.1L187.7 242.3L189.3 241.7L194.9 232.7L192.8 233.3L190.8 232L191.4 230.5L182.3 227.4L174 220.3L167.2 217.9L164.8 214L164 215L159.2 215.5L156.6 214.1L156.5 212.9L154.1 212.2L156.3 210.7L153.8 209.2L153.5 206.1L149.8 202.6L150.6 200.5L144.3 198.3L143 195.4L139 191.6M422.1 170.8L417.4 179.9L417.3 186.7L414.6 192.7L412.5 194.2L400.7 197.2L386.2 196.2L357.4 197.7L338.8 194.9L329.5 197.7L322.1 198.3L315.4 194.8L309.4 187M-2.7 139.9L-8.5 135.7L-9.6 131.4L-8.1 129.1L-2.5 126.4L1.5 122.5L1.8 113.6L8 100.1L12.5 93.2L11.1 90.3L7.4 87.2L0.7 85.8L-8.8 89.6L-16.2 94.8L-25.4 104.9L-34 111.2L-41.6 113.2L-51.6 112.8M-1 209.4L10.5 204.8L10.8 203.3L8.3 202L9.6 199.4L14 200.3L15.2 201.7L18.1 201.8L20.3 201.3L22.6 198.5L24.9 199.1L27.4 198L28.9 196.6L29 192.7L32.2 190.2L38.9 189.4L40.3 192.7L44.5 192.9L47.1 191.8L51.3 186L56.7 188.6L59.1 187.5L66.4 189.8L67.1 187.7L76.6 185.8L77.2 182.7L79.7 179.9L78.4 178.3L84.9 176.1L86.8 174.6L86.4 173.3M93.4 117.3L86.6 116.8L72.9 111.9L61.1 112.4L53.4 117.9L31.7 138.7L27.2 141.6L21.3 143L11.7 143.4L-2.7 139.9M325.9 133.4L324.5 135.1L312.9 138L308.7 136.4L306.6 140.9L304.1 142.3L305.4 144.8L307.9 144.7L309.2 146.1L309.4 150L307.5 153.5L304.2 154.7L300.7 159.3L298.2 160.6L299.6 162.1L298.6 166.8L296.2 167L297.9 170.8L301.6 173.8L300.2 175.1L300.7 176.9L298 177.2L297.4 179.6L293.4 180.7M309.4 187L307.8 184.8L303.8 182.6L287.4 181.2L282.7 183L276.9 187.9L265.3 192.1L258.1 192.9L255 192.2L252 189.3L252.6 187L256.8 183.1M145.3 106.2L137.1 110.3L119.8 110.8L93.4 117.3M139 191.6L125 181.4L124.6 177.2L123.2 176.2L122.5 164.2L123.4 162.2L121.9 151.8M187.4 101.1L165.6 104.6L150.9 104.7L145.4 106.1M86.4 173.3L86.9 169.9L92.4 170.4L94.4 169L92 166L100 163.2L97.5 159.5L99.4 157.2L109.1 157.3M139 191.6L134 187.6L129.8 158.1M336 169.2L332.4 171.6L330.2 171.8L328.6 173.6L326.1 173.6L323.3 176.3L319 176.9L315.1 175.4L316.8 178L313 177.7L310.9 179.1L311 180.7M121.9 151.8L122.4 122.5M127.1 147.4L127.6 142.5L140 132.2M109.1 157.3L119.4 156.6L121.9 151.8M252.2 189.7L260 184L260.8 180.2M10.5 204.8L17.4 202M311.2 181L311.6 184.3L307.8 184.8M129.8 158.1L127.4 156L129.7 154.4M254.3 185.1L260 184M127.2 151.5L127.1 147.4"/><style>.secondary,.major,.water,.coast{fill:none;stroke-linecap:round;stroke-linejoin:round;vector-effect:non-scaling-stroke}.secondary{stroke:#777a7f;stroke-width:.65;opacity:.38}.major{stroke:#a2a4a8;stroke-width:1.25;opacity:.58}.water{stroke:#bbbcc0;stroke-width:2.7;opacity:.5}.coast{stroke:#d0d1d3;stroke-width:2.1;opacity:.52}.park{fill:#393b3f;opacity:.5;stroke:none}</style></svg>