<svg xmlns="http://www.w3.org/2000/svg" viewBox="0 0 320 210" preserveAspectRatio="xMidYMid slice"><rect width="320" height="210" fill="#17181b"/><path class="park" d="M5.6 -3.9L12.8 7.5L8 9.6L6 6.5L2.4 8.1L-19.2 -4.2L-25.7 -9.7L-30.8 -19.2L-33.7 -17.6L-36.9 -23.1L-36.8 -25L-34.3 -27.7L-29.6 -25.8L-26.8 -28.1L-23.9 -27.3L-19.2 -28.2L-12.5 -25.7L-6 -26.3L-5.1 -25.1L-2.3 -25.2L7.7 -9.7L5.6 -3.9ZM243.2 158.3L242.2 151.9L242.6 155.9L233.9 151.6L233 147.8L234.5 138.8L239.7 139L239.6 137.8L238.3 137.8L238.3 136.4L231.7 137.8L229.8 151.5L237.5 156.9L243.2 158.3ZM156.3 208L158.5 211.8L162.2 213.2L166.7 204.6L165.5 201.5L159.7 202.4L157.2 204.7L156.3 208ZM176.8 175.3L176.8 180.4L170.6 182.3L170.2 174.6L176.8 175.3ZM191 148.2L186.7 147.3L185.4 150.3L186.6 151.9L190.3 153L191 148.2ZM131.2 91.9L129.9 92.6L127.3 91.1L123.7 94.2L126.5 94.8L131.2 91.9ZM188.1 154.4L186.2 154.8L183.5 148.2L188.1 154.4ZM230 119.2L227.3 123.2L224 121.3L226.2 118.9L226.7 120L230 119.2ZM116.7 94.8L121.5 100L115.9 95.8L116.7 94.8ZM182.4 145.9L186.4 147.3L185.2 150L182.4 145.9ZM117.3 112.2L120.4 111.1L118.5 108.6L116.6 109.5L117.3 112.2ZM186.7 141.9L188.6 142.5L187.3 145.4L185.4 145.1L186.7 141.9ZM167.4 129.3L168.4 130.5L171.6 129.4L171.2 128.3L167.4 129.3ZM138.9 78.6L140.2 76.3L137.9 75.6L137.1 77.2L138.9 78.6ZM186.7 152.1L190.2 153.1L190 154L188.4 154.3L186.7 152.1ZM225.9 46.3L229 47.5L229.5 46L225.9 46.3ZM147.4 162.9L147.3 164L150.2 163.8L150.3 163L147.4 162.9ZM211.3 134.1L210 133.8L211.8 135.9L213 134.7L211.3 134.1ZM213.2 136.7L214.3 136L216.1 137L215.3 137.9L213.2 136.7ZM111.3 133.3L111.1 131.9L108.9 131.3L111.3 133.3ZM235.5 148.9L236.9 150L237.9 148.4L235.5 148.9ZM101.4 150L102.2 150.2L102.6 148.4L101.4 150ZM148.9 157L148.7 158L150 158.1L150.1 157.2L148.9 157ZM113.6 146.5L112.9 147.6L114.2 148.1L113.6 146.5ZM136.7 139.8L135.9 140.6L137 141L137.6 140.1L136.7 139.8ZM144.1 99.4L143.9 100.9L145.1 99.9L144.1 99.4ZM114.7 112.6L115.8 112.4L115.3 111.1L114.7 112.6ZM188.6 142.6L186.9 141.4L188.6 142.6Z"/><path class="major" d="M91.6 82.6L0.8 20.4M0.6 20.6L90.3 82.1M90.3 82.1L99.7 88.5L101.5 91.1L102.3 94.9M102.6 94.9L100.8 89.3L91.6 82.6M0.8 20.4L-13.9 11.3M-14.1 14.7L-4.6 17.7L0.6 20.6M107.3 107L111.8 110.6"/><path class="water" d="M231.3 161.8L245.6 169.9L255 169.3L272.3 154.2L292.2 133.4L309.9 119L317.9 116.4L333.6 118.6L342 120.9L359.4 131.8L372.5 137.7M54.2 -37L58.9 -29.5L70.5 -17.7L76.4 -9.5L81.2 -4.7L86.4 -1.3L101.7 4.4L113.5 11.8L118.8 16.4L121.7 21.4L121.6 28.2L118.8 44.9L119.3 52.4L124.8 56.8L147.9 68.7L150.7 71.9M-54 234.9L-44.6 233.3L-18 225.4L-6.8 220.8L10 211.2L42.3 184.8L44.6 177.6L41.9 166L43.3 160.7L63.9 157.5M171.4 194L171.1 199.7L151 237.9L146.2 278L149 287L154.8 297.2L157.4 307.2L160 341M105.4 98.3L109.5 101.6L115 109.1L117.4 108.1L123.9 101.2L135.1 97L142.8 96.9L150.3 99.4L161.1 106L163.5 110.7L160.4 114L155.9 116.5L144.2 120.3L137.5 123.8L138.7 131.5L141.7 133.9L147.6 135.6L166 134.4L176.5 135M-54.7 44.9L-46.6 51.5L-9.5 75.4L51.2 118.5L66.4 127.7M-57.7 182.8L-46.9 181L-9.7 181.4L-2.5 176.8L2.1 170.3L16.6 163.7L32.2 152.8L40.6 153.5L57.7 157.6L63.9 157.5L70.6 154.5L74.9 150.6M417 -14.4L410.2 2.5L405.3 6.9L393.5 13.8L388.1 22.2L386.2 29.6L380.3 34.7L375.7 37.5L362.5 41L350.1 40.1L349.1 41L347.9 46.4L346.6 47.3L340.6 48.8L329.1 47.9L326.5 49L323.3 53.7L319.8 53.2M150.7 71.9L168.8 75.1L174.5 74.7L183.9 71.7L207.2 68L225.8 61.8M340.8 -39.4L335.2 -35.8L327.4 -26.5L315.3 -18.8L304.2 -9.3L292.9 -3L279.7 2.8M113.1 140.4L150.2 150.4L155.2 149.7L163.8 145.9L176.5 135M305.6 58.8L318.2 75L320.9 80.7L323.5 90.9L331.1 99.3L332.7 103.4L333.6 118.6M93.8 158.9L102.1 163.6L115.6 167.3L120 171.1L123.4 179.2L121.1 200.2L121.5 202L127.6 205.8M-62.6 74.2L-28.1 81.2L-12.3 79.8L3 84.4M5 15.9L37.9 37.9L61.1 51M279.7 2.8L277.6 5.9L280.2 19L277.6 24L266.6 32L238.7 39M171.4 194L168.6 189.9L167.3 185.2L169.2 174.8L170.7 170.4L178.6 157.4L181.5 148L177.7 142L176.5 135M341.9 7.1L337.5 6.9L333 10.4L331.6 13.7L333.2 17.9L332.2 20.7L325.9 25L324.8 28.4L320.9 30.5L317.1 34.2L315.6 42.1L320.2 51.4L319.8 53.2M251.8 103.2L273.6 111.6L266.1 125L256 129.9L253.7 135.5L250.4 137.3M262.9 33.3L260.7 42.1L260.8 47L262.6 51.6L264.4 52.7L268.3 52.2L275.9 46.6L285.2 42.5L292.8 41.6L298.1 44.7M223.7 16.7L225.5 22.9L224.3 29.3L234.5 34.3L238.8 38.4L238.5 40.5L232.1 47.8L229.8 54.7L225.8 61.8M216.7 165.6L217 174.8L226.1 189.8L233.1 206.1L237.6 212.7L241.3 215M171.4 194L190.2 175.9L198 170.6L204.9 167.6L216.7 165.6M176.5 135L186.3 132.1L191.1 131.9L197.6 133.6L212.3 141.4L223.7 151.8M103.4 235.2L108 232.8L121 232.4L130.1 229.5L124.7 209.5L127.6 205.8M289.4 119L287.3 111L287.3 103.4L285.6 99.6L279.3 92.3L271 85.6L258.6 86.7M-40.3 -9.1L5 15.9M166.4 83.9L174.2 91.8L194.2 105.4L209.1 108.6M66.4 127.7L83.5 137.9L90.1 139.8L113.1 140.4M93.8 158.9L106.9 155.6L112.3 157.6L121.1 163L136.8 164.7L141 166.1M127.6 205.8L142.8 206.6L152 205L171.4 194M225.8 61.8L239.2 67.8L250.4 74.6L254.9 78.8L260.3 90.3M271 85.6L279.5 81L296.4 74.7L303.8 66.4L305.6 58.8M74.5 59.1L76.8 66.9L79.4 70.6L106.8 90.2M209.1 108.6L212.9 110.2L219 110.3L232.5 102L240.6 100.5L248.8 101.2L251.8 103.2M241.3 215L251.1 191.4L253.7 187.4L250.4 174.8M109.4 78.2L135.5 69.6L150.7 71.9M192.6 132.3L193.9 138.3L198.2 145.4L216.6 163.3L216.7 165.6M273.6 111.6L289.4 119L287.4 126.5L283.2 135.9L283.8 142.2M244 125.7L247.6 131.4L248.6 135.2L253 141L272.3 154.2M93.2 100.5L83.6 101.6L65.2 127M171.2 101.5L173.5 92.4L169.4 103.6L161.8 105.3L169.3 104L171.2 101.5M141 166.1L151.1 164.5L166.6 164.5L172 162.4L178.6 157.4M260.3 90.3L256.8 98.3L250.8 104.1L249 107.6L244 125.7M85.8 133.7L101.2 112.3L106.2 107L111.3 104.5M128.5 75.6L127.5 77.7L150.5 86L160.7 92.8M253 -2.4L248.4 5.2L243.9 7.3L237.8 7.5L223.7 16.7M187.1 23.7L189.2 30.8L189.1 34.4L184 51.8L180.6 58.3M187.2 22.7L214.6 12.9L221.1 13.6M8.3 -9.9L7 -4.6L15.8 9.5L6.9 16.8M280.1 168.1L284.5 175.6L277.4 185.3L268.2 179.7M246.3 118.3L237.9 117.8L229.1 121.6L227.2 125.5L229.9 133.1M253 -2.4L255.9 4.6L257.8 5.5L271.9 4.2L277.9 5.5M84.8 64.1L102.3 77L109.4 78.2M135.1 97L132.1 91.9L119.3 86.1L111.7 81.1M300.5 92.7L289.4 119M216.6 32.8L211.2 33.8L205.9 31.8L189.2 33.2M211.9 49.5L209.6 48.3L204.2 42.7L197.1 43.2L187.8 39.2M76.4 133.7L92.4 111.2M150.7 71.9L153.2 75.9L161.6 80L166.4 83.9L163 90.1M193.4 70.2L192.3 72.8L177.2 90.5M253.4 217.5L258.9 211.3L259.1 209L256.7 204.2L257 202.9L260.2 201.1L261.6 196.8M135.3 84.3L134.4 85.6L131.2 86.1L120.4 82.6L121.6 77.4L119.5 74.5M158.1 94.5L151.1 89.2L135.3 84.3M109.4 78.2L110.4 81.5L105.4 87.4L106.8 90.2L100.9 95.3L103 97.5M178.6 157.4L193.2 153.8L201.7 148.9M187.1 1L190.5 5.1L191.1 8.7L187.1 23.7M221.4 50L225.7 45.6L226.3 42.3L219.9 38.7L216.6 32.8M211.9 49.5L211.8 54.7L202.8 65.1L202.4 68.8M266.9 -14.4L260.9 -6.5L255.9 4.6M279.3 92.3L284.9 87L296.9 79.2M220.7 129.3L212.9 128.7L208.6 130.2L205.9 131.6L202.7 136.3M106.8 89.6L115.7 95.5L121.3 86.9M74.9 150.6L83.7 155.2L93.8 158.9M216.7 165.6L228.4 166.1L236.3 165M61.1 51L77.8 60.9M180.6 58.3L171.3 74.9M230.8 135.7L217.8 139.1L213.7 142.5M141.6 148.5L147.5 138.8L151.6 138.8L151.6 135.7M74.9 150.6L90.1 139.8M87.4 156.3L91.1 150.5L95 139.9M229.9 133.1L231.2 141.5L229.5 149.1L228.2 150.4M115.7 109.1L117.2 117.7L120.8 119.9L125.8 120.8M253.1 183.9L257.5 181.2L256.4 170.9L255 169.3M128.5 144.3L132.6 141.3L137.5 132L138.9 131.7M91.1 150.5L107.7 154.5M138.2 147.4L134.6 157.6L130.6 162.3M121.3 130.3L137.8 127.9M138.1 129.4L122 133.5M119.8 141.9L112.7 156.8"/><path class="coast" d="M184.2 477.6L185.1 476.5L184.4 475.3L180.9 475.1L144.9 464.3L142.7 447.3L144.6 423.4L147.4 411.3L153.4 398.8L156.7 394.3L159.2 392.6L163.1 393.9L157.9 391.6L158.5 387.6L160.6 382.4L169.7 368.8L176.1 371.2L169.9 368.6L182.5 348.5L185.7 348.9L183.5 347.7L184.5 345.2L190.1 347.3L184.7 344.9L197.5 319.5L200.7 316.4L206.6 318.6L201.3 316.3L202.1 312.8L204 309.6L206.2 310.1L204 309L205.4 306.8L207.6 307.8L205.5 306.7L206.8 304.5L209.1 305.3L206.9 304.3L208.2 302.1L210.6 302.8L208.4 301.8L209.6 299.5L211.9 300.4L209.7 299.4L210.8 297.1L213.3 297.9L210.9 296.9L212 294.6L214.5 295.5L212.1 294.4L213.3 292.2L215.8 293.1L213.4 292L214.7 289.7L217.2 290.6L214.8 289.6L216 287.3L218.5 288.2L216.1 287.1L217.4 284.9L219.8 285.8L217.5 284.8L218.8 282.6L221.1 283.5L218.9 282.4L220.2 280.2L222.5 281.1L220.3 280L221.6 277.8L224 278.8L221.7 277.6L223.1 275.5L225.6 276.5L223.4 275.4L224.9 273.2L227 274.1L225 273.1L225.8 271.4L228.4 271.8L226.6 270.8L228 268.6L230 269.3L227.5 267.8L228.7 265.9L231.6 267.1L228.9 265.6L230.3 263.5L233 264.6L230.4 263.3L231.7 261.2L234.6 262.3L231.8 260.9L233.4 259L235.8 259.9L233.7 258.9L234.6 257.2L238.2 258.4L235.5 256.9L236.4 255.1L237.5 254.5L240.1 255.8L237.5 254.3L238.4 252.2L240 251.1L243.3 252.6L240 250.8L242.2 247.9L243.7 248.2L242.6 247.3L243.9 244.9L244.9 244.3L248.4 245.9L245.3 244.2L246.3 242.4L247.6 241.3L251.1 243.1L247.7 241.2L248.1 240L249.9 238.2L252.6 239.5L249.9 237.9L253.5 233.4L257.3 234.7L254.2 232.9L257.4 229.2L260.3 230.6L257.3 228.9L258.3 227.3L260.2 225.5L263.3 227.3L260.4 225.4L261.4 223.3L263.3 221.8L266.2 223.6L263.3 221.5L264.8 219.3L266.2 218L269.6 219.8L267.4 218.3L268.4 215.9L274.5 210.8L277.4 211.6L275.4 210.2L276.2 207.8L281.1 203.3L283 204.1L281.8 202.4L285.3 198.3L315.5 169.5L332.2 155.7L343.8 148L352.2 143.9L365.8 146.2L388.3 152.1L399.4 159.7L427.5 183.1L429.2 182.6"/><style>.secondary,.major,.water,.coast{fill:none;stroke-linecap:round;stroke-linejoin:round;vector-effect:non-scaling-stroke}.secondary{stroke:#777a7f;stroke-width:.65;opacity:.38}.major{stroke:#a2a4a8;stroke-width:1.25;opacity:.58}.water{stroke:#bbbcc0;stroke-width:2.7;opacity:.5}.coast{stroke:#d0d1d3;stroke-width:2.1;opacity:.52}.park{fill:#393b3f;opacity:.5;stroke:none}</style></svg>